<svg width="53" height="53" viewBox="0 0 53 53" fill="none" xmlns="http://www.w3.org/2000/svg">
<path d="M35.1746 3.46467L36.6238 3.75555C36.4996 4.06816 36.365 4.40977 36.2098 4.76482C35.6094 6.17574 34.7398 7.79887 34.1395 8.40029C33.6322 8.90234 32.0898 9.39094 30.7131 9.58865C29.5537 9.77498 28.3943 9.99236 27.2246 9.99236V11.6455H25.7754V9.99236C24.5332 10.0027 23.2703 9.72322 22.2869 9.58865C20.9102 9.39197 19.3678 8.90338 18.8605 8.4034C18.2602 7.80197 17.3906 6.17885 16.7902 4.76896C16.635 4.41287 16.5004 4.07023 16.3762 3.75555L17.8254 3.46467C18.6949 4.64164 21.759 8.33611 26.5 8.33611C31.241 8.33611 34.3051 4.64164 35.1746 3.46467ZM38.4768 4.1251L41.7789 4.78553L38.7045 12.484L42.0895 17.5563L41.1061 24.3986C40.9197 24.5436 40.7127 24.6885 40.485 24.8438C39.3152 25.6201 37.7832 26.3447 36.4375 26.3447C35.9924 26.3447 35.1953 25.9824 34.3465 25.2682C33.4873 24.5539 32.5867 23.5602 31.7793 22.5561C30.3094 20.7031 29.2639 19.0158 29.0879 18.726V16.8213H30.2266V14.958H29.0879V13.5088H30.2266V11.6455C30.2266 11.6455 34.2533 10.8484 35.4438 9.72322C36.4996 8.67668 37.2863 6.9873 37.9281 5.49772C38.1352 5.00188 38.3215 4.53502 38.4768 4.1251ZM14.5232 4.1251C14.6785 4.53502 14.8648 5.00291 15.0719 5.50082C15.7137 6.99041 16.5004 8.67979 17.5563 9.72322C19.1504 11.0865 22.7734 11.6455 22.7734 11.6455V13.5088H23.9121V14.958H22.7734V16.8213H23.9121V18.726C23.7361 19.0158 22.6906 20.7031 21.2207 22.5561C20.4133 23.5602 19.5127 24.5539 18.6535 25.2682C17.8047 25.9824 17.0076 26.3447 16.5625 26.3447C15.2168 26.3447 13.6848 25.6201 12.515 24.8438C12.2873 24.6885 12.0803 24.5436 11.8939 24.3986L10.9105 17.5563L14.2955 12.484L11.2211 4.78449L14.5232 4.1251ZM27.2246 13.5088V14.958H25.7754V13.5088H27.2246ZM27.2246 16.8213V19.2539L27.3592 19.4713C27.3592 19.4713 28.6221 21.583 30.3301 23.7154C31.1789 24.7816 32.1416 25.8582 33.1457 26.6967C34.1602 27.5352 35.2264 28.208 36.4375 28.208C38.0523 28.208 39.543 27.5766 40.7541 26.8623L40.5367 28.415L34.9262 32.6281L26.5 22.5043L18.0738 32.6281L12.4633 28.415L12.2459 26.8623C13.457 27.5766 14.9477 28.208 16.5625 28.208C17.7736 28.208 18.8398 27.5352 19.8543 26.6967C20.8584 25.8582 21.8211 24.7816 22.6699 23.7154C24.3779 21.583 25.6408 19.4713 25.6408 19.4713L25.7754 19.2539V16.8213H27.2246ZM26.5 25.4234L34.6363 35.1746L38.0627 32.6074L37.2967 36.4375C35.9406 36.7584 30.651 37.9385 26.5 37.9385C22.349 37.9385 17.0594 36.7584 15.7033 36.4375L14.9373 32.6074L18.3637 35.1746L26.5 25.4234ZM35.8475 38.6734L36.748 42.2861C36.1373 42.4932 35.4541 42.7209 34.7191 42.9486C34.2844 43.0832 33.8289 43.2178 33.3734 43.342L32.6902 39.2428C33.86 39.0564 34.9469 38.8494 35.8475 38.6734ZM17.1525 38.6734C18.0531 38.8494 19.14 39.0564 20.3098 39.2428L19.6266 43.342C19.1711 43.2178 18.7156 43.0832 18.2809 42.9486C17.5459 42.7209 16.8627 42.4932 16.252 42.2861L17.1525 38.6734ZM30.8373 39.5016L31.5516 43.8182C30.1127 44.1598 28.6738 44.4289 27.4316 44.5221V39.7811C28.5496 39.75 29.709 39.6361 30.8373 39.5016ZM22.1627 39.5016C23.291 39.6361 24.4504 39.75 25.5684 39.7811V44.5221C24.3262 44.4289 22.8873 44.1598 21.4484 43.8182L22.1627 39.5016ZM39.0979 43.4248L40.2572 48.052C40.2572 48.052 34.4396 50.143 31.3963 50.5674C28.1666 51.0125 24.8334 51.0125 21.6037 50.5674C18.5604 50.143 12.7428 48.052 12.7428 48.052L13.9021 43.4248C14.7406 43.7457 15.9828 44.1908 17.7426 44.7291C20.465 45.5676 23.8086 46.4268 26.5 46.4268C29.1914 46.4268 32.535 45.5676 35.2574 44.7291C37.0172 44.1908 38.2594 43.7457 39.0979 43.4248Z" fill="black"/>
</svg>
